<svg xmlns="http://www.w3.org/2000/svg" xmlns:xlink="http://www.w3.org/1999/xlink" width="661" zoomAndPan="magnify" viewBox="0 0 495.75 405.74999" height="541" preserveAspectRatio="xMidYMid meet" version="1.0"><defs><clipPath id="f750aa2148"><path d="M 0.0273438 0 L 299.84375 0 L 299.84375 274.332031 L 0.0273438 274.332031 Z M 0.0273438 0 " clip-rule="nonzero"></path></clipPath><clipPath id="aa7cebedbc"><path d="M 300.171875 223 L 397 223 L 397 312 L 300.171875 312 Z M 300.171875 223 " clip-rule="nonzero"></path></clipPath><clipPath id="4ad2a5bb2b"><path d="M 399 222.433594 L 495.050781 222.433594 L 495.050781 311 L 399 311 Z M 399 222.433594 " clip-rule="nonzero"></path></clipPath><clipPath id="be5f75a8ef"><path d="M 344 317 L 441 317 L 441 405.320312 L 344 405.320312 Z M 344 317 " clip-rule="nonzero"></path></clipPath></defs><g clip-path="url(#f750aa2148)"><path fill="#fade7d" d="M 299.097656 142.167969 C 301.847656 173.71875 293.140625 208.003906 269.207031 229.917969 C 231.632812 263.203125 179.535156 274.046875 130.527344 274.261719 C 79.894531 274.605469 24.878906 247.523438 8.144531 197.210938 C -2.328125 168.429688 -1.988281 136.492188 6.898438 107.34375 C 12.925781 87.253906 20.472656 67.386719 31.433594 49.445312 C 50.285156 16.695312 89.402344 2.136719 125.59375 0.28125 C 147.964844 -0.820312 170.875 0.710938 191.96875 8.726562 C 198.230469 11.398438 204.9375 12.757812 211.121094 15.632812 C 219.566406 19.496094 227.523438 24.339844 235.21875 29.511719 C 254.570312 43.445312 270.601562 62.25 282.351562 82.941406 C 292.367188 101.082031 297.15625 121.648438 299.089844 142.160156 Z M 299.097656 142.167969 " fill-opacity="1" fill-rule="nonzero"></path></g><path fill="#000000" d="M 197.214844 127.988281 C 204.480469 128.730469 202.980469 132.53125 201.449219 137.976562 C 200.035156 143.4375 198.511719 148.878906 196.425781 154.125 C 190.40625 168.527344 182.15625 182.914062 169.371094 192.304688 C 160.769531 197.914062 150.179688 201.832031 139.851562 200.125 C 120.738281 197.035156 110.351562 180.90625 104.265625 163.945312 C 101.171875 154.945312 99.476562 145.355469 99.992188 135.925781 C 100.414062 134.609375 102.089844 134.414062 103.105469 133.683594 C 105.394531 132.367188 108.574219 130.445312 110.925781 132.589844 C 112.484375 134.6875 112.183594 137.585938 112.828125 140.03125 C 114.464844 148.050781 115.703125 155.996094 118.347656 163.691406 C 124.082031 179.800781 135.289062 192.480469 153.632812 186.132812 C 169.753906 179.871094 179.75 164.355469 186.019531 148.964844 C 188.300781 144.019531 190.28125 138.941406 192.183594 133.839844 C 193.34375 131.597656 193.871094 127.375 197.226562 127.988281 Z M 197.214844 127.988281 " fill-opacity="1" fill-rule="nonzero"></path><path fill="#000000" d="M 102.363281 86.503906 C 107.40625 84.621094 111.910156 89.777344 111.851562 94.546875 C 111.753906 100.535156 105.582031 105.898438 99.71875 105.929688 C 91.371094 105.890625 89.296875 95.289062 94.335938 89.894531 C 96.238281 87.644531 99.273438 85.371094 102.363281 86.492188 Z M 102.363281 86.503906 " fill-opacity="1" fill-rule="nonzero"></path><path fill="#000000" d="M 213.382812 89.066406 C 221.617188 93.113281 214.449219 106.59375 206.410156 102.972656 C 199.9375 100.019531 202.179688 90.082031 208.597656 88.609375 C 210.109375 88.191406 212.203125 87.78125 213.382812 89.078125 Z M 213.382812 89.066406 " fill-opacity="1" fill-rule="nonzero"></path><path fill="#fea9ed" d="M 325.628906 309.632812 C 325.628906 309.632812 318.792969 311.945312 319.617188 305.054688 L 323.210938 280.550781 C 323.210938 280.550781 304.222656 265.699219 301.902344 259.558594 C 301.902344 259.558594 301.726562 254.621094 315.207031 254.160156 L 332.511719 252.976562 C 332.511719 252.976562 344.195312 227.078125 345.757812 225.839844 C 345.757812 225.839844 348.804688 222.835938 353.582031 231.449219 L 363.992188 251.71875 L 391.230469 255.222656 C 391.230469 255.222656 398.933594 255.546875 390.230469 263.796875 L 373.894531 279.101562 L 379.335938 306.871094 C 379.335938 306.871094 376.941406 310.113281 367.082031 305.386719 L 350.164062 297.296875 Z M 325.628906 309.632812 " fill-opacity="1" fill-rule="evenodd"></path><g clip-path="url(#aa7cebedbc)"><path fill="#000000" d="M 344.621094 224.546875 L 344.550781 224.609375 C 344.550781 224.609375 345.875 223.160156 348.28125 223.734375 C 349.867188 224.117188 352.304688 225.59375 355.085938 230.613281 L 355.113281 230.660156 L 365.113281 250.121094 L 391.398438 253.503906 C 391.710938 253.53125 392.78125 253.640625 393.769531 254.109375 C 394.660156 254.535156 395.460938 255.230469 395.851562 256.238281 C 396.109375 256.898438 396.207031 257.714844 395.960938 258.71875 C 395.609375 260.148438 394.398438 262.222656 391.414062 265.046875 L 391.410156 265.054688 L 375.769531 279.707031 L 381.027344 306.539062 C 381.117188 307.015625 381.007812 307.507812 380.722656 307.894531 C 380.722656 307.894531 377.851562 312.464844 366.339844 306.945312 L 350.183594 299.214844 L 326.402344 311.175781 C 326.328125 311.210938 326.257812 311.242188 326.179688 311.265625 C 326.179688 311.265625 324.691406 311.773438 323.039062 311.730469 C 321.730469 311.691406 320.363281 311.304688 319.351562 310.320312 C 318.339844 309.332031 317.570312 307.679688 317.90625 304.851562 L 317.914062 304.804688 L 321.363281 281.285156 C 318.96875 279.375 311.628906 273.414062 306.300781 268.011719 C 303.355469 265.023438 301.042969 262.15625 300.292969 260.171875 C 300.226562 259.996094 300.1875 259.808594 300.183594 259.621094 C 300.183594 259.621094 299.558594 252.976562 315.121094 252.4375 L 331.371094 251.328125 C 333.007812 247.707031 338.992188 234.589844 342.253906 228.339844 C 343.3125 226.308594 344.210938 224.941406 344.621094 224.546875 Z M 303.71875 259.410156 C 304.527344 261.066406 306.457031 263.253906 308.757812 265.589844 C 315.066406 271.992188 324.273438 279.191406 324.273438 279.191406 C 324.761719 279.570312 325.007812 280.1875 324.917969 280.800781 L 321.324219 305.289062 C 321.175781 306.582031 321.289062 307.394531 321.757812 307.847656 C 322.125 308.207031 322.65625 308.265625 323.132812 308.28125 C 323.957031 308.300781 324.714844 308.105469 324.980469 308.027344 L 349.390625 295.753906 C 349.867188 295.515625 350.429688 295.507812 350.90625 295.738281 L 367.824219 303.832031 C 371.875 305.773438 374.535156 306.296875 376.246094 306.222656 C 376.722656 306.203125 377.117188 306.113281 377.414062 306.019531 L 372.203125 279.433594 C 372.085938 278.847656 372.28125 278.246094 372.714844 277.839844 L 389.050781 262.539062 C 390.625 261.042969 391.625 259.847656 392.1875 258.875 C 392.527344 258.285156 392.710938 257.863281 392.648438 257.523438 C 392.601562 257.253906 392.289062 257.214844 392.078125 257.140625 C 391.605469 256.96875 391.15625 256.945312 391.15625 256.945312 C 391.109375 256.945312 391.058594 256.941406 391.011719 256.933594 L 363.773438 253.429688 C 363.210938 253.355469 362.722656 253.011719 362.460938 252.503906 L 352.058594 232.261719 C 350.410156 229.289062 349.070312 227.859375 347.96875 227.285156 C 347.464844 227.019531 347.019531 227.105469 346.914062 227.132812 C 346.761719 227.371094 345.988281 228.632812 345.308594 229.9375 C 341.53125 237.171875 334.085938 253.6875 334.085938 253.6875 C 333.824219 254.265625 333.265625 254.65625 332.632812 254.699219 L 315.324219 255.878906 L 315.269531 255.882812 C 309.121094 256.09375 306.0625 257.210938 304.566406 258.390625 C 304.101562 258.753906 303.839844 259.167969 303.71875 259.410156 Z M 346.933594 227.101562 L 346.953125 227.082031 L 345.757812 227.566406 L 346.828125 227.195312 C 346.859375 227.167969 346.941406 227.089844 346.941406 227.089844 C 346.941406 227.089844 346.9375 227.09375 346.933594 227.101562 Z M 303.628906 259.613281 C 303.625 259.617188 303.625 259.617188 303.625 259.617188 L 303.628906 259.519531 L 301.902344 261.285156 C 302.46875 261.285156 303 261.007812 303.320312 260.542969 C 303.515625 260.265625 303.617188 259.941406 303.628906 259.613281 Z M 303.628906 259.613281 " fill-opacity="1" fill-rule="evenodd"></path></g><path fill="#fea9ed" d="M 424.582031 308.496094 C 424.582031 308.496094 417.746094 310.8125 418.570312 303.917969 L 422.164062 279.414062 C 422.164062 279.414062 403.175781 264.5625 400.859375 258.425781 C 400.859375 258.425781 400.679688 253.484375 414.160156 253.023438 L 431.46875 251.84375 C 431.46875 251.84375 443.148438 225.941406 444.710938 224.703125 C 444.710938 224.703125 447.757812 221.699219 452.535156 230.3125 L 462.945312 250.582031 L 490.183594 254.085938 C 490.183594 254.085938 497.890625 254.410156 489.183594 262.660156 L 472.847656 277.964844 L 478.289062 305.734375 C 478.289062 305.734375 475.894531 308.976562 466.035156 304.25 L 449.117188 296.160156 Z M 424.582031 308.496094 " fill-opacity="1" fill-rule="evenodd"></path><g clip-path="url(#4ad2a5bb2b)"><path fill="#000000" d="M 443.578125 223.410156 L 443.503906 223.472656 C 443.503906 223.472656 444.828125 222.023438 447.234375 222.601562 C 448.820312 222.980469 451.261719 224.457031 454.042969 229.476562 L 454.066406 229.523438 L 464.066406 248.984375 L 490.351562 252.367188 C 490.667969 252.394531 491.734375 252.507812 492.722656 252.972656 C 493.613281 253.398438 494.414062 254.09375 494.804688 255.101562 C 495.0625 255.761719 495.160156 256.578125 494.914062 257.582031 C 494.5625 259.015625 493.351562 261.085938 490.371094 263.910156 L 490.363281 263.917969 L 474.722656 278.570312 L 479.980469 305.402344 C 480.070312 305.878906 479.960938 306.371094 479.675781 306.761719 C 479.675781 306.761719 476.804688 311.328125 465.292969 305.808594 L 449.136719 298.082031 L 425.355469 310.039062 C 425.28125 310.074219 425.210938 310.105469 425.132812 310.132812 C 425.132812 310.132812 423.644531 310.636719 421.992188 310.59375 C 420.683594 310.554688 419.316406 310.167969 418.304688 309.183594 C 417.292969 308.195312 416.523438 306.542969 416.859375 303.714844 L 416.867188 303.667969 L 420.316406 280.148438 C 417.921875 278.238281 410.582031 272.277344 405.257812 266.875 C 402.308594 263.886719 399.996094 261.019531 399.246094 259.035156 C 399.179688 258.859375 399.140625 258.675781 399.136719 258.488281 C 399.136719 258.488281 398.511719 251.84375 414.074219 251.300781 L 430.324219 250.191406 C 431.960938 246.574219 437.945312 233.453125 441.207031 227.203125 C 442.265625 225.171875 443.164062 223.804688 443.578125 223.410156 Z M 445.886719 225.964844 L 445.90625 225.949219 L 444.710938 226.429688 L 445.78125 226.058594 C 445.8125 226.03125 445.894531 225.953125 445.894531 225.953125 C 445.894531 225.953125 445.890625 225.957031 445.886719 225.964844 Z M 402.671875 258.277344 C 403.480469 259.929688 405.410156 262.117188 407.710938 264.453125 C 414.019531 270.855469 423.226562 278.054688 423.226562 278.054688 C 423.714844 278.4375 423.960938 279.050781 423.871094 279.664062 L 420.28125 304.15625 C 420.128906 305.449219 420.242188 306.257812 420.710938 306.710938 C 421.078125 307.070312 421.609375 307.128906 422.085938 307.144531 C 422.910156 307.167969 423.667969 306.96875 423.933594 306.890625 L 448.34375 294.617188 C 448.820312 294.378906 449.382812 294.371094 449.863281 294.601562 L 466.777344 302.695312 C 470.828125 304.636719 473.488281 305.160156 475.199219 305.089844 C 475.675781 305.070312 476.070312 304.980469 476.367188 304.882812 L 471.15625 278.296875 C 471.039062 277.714844 471.234375 277.113281 471.667969 276.703125 L 488.003906 261.402344 C 489.582031 259.910156 490.578125 258.714844 491.140625 257.738281 C 491.480469 257.148438 491.664062 256.730469 491.601562 256.386719 C 491.554688 256.117188 491.242188 256.078125 491.03125 256.003906 C 490.558594 255.835938 490.109375 255.8125 490.109375 255.8125 C 490.0625 255.808594 490.011719 255.804688 489.964844 255.796875 L 462.730469 252.292969 C 462.164062 252.21875 461.675781 251.875 461.414062 251.371094 L 451.015625 231.125 C 449.363281 228.152344 448.023438 226.722656 446.921875 226.148438 C 446.417969 225.882812 445.972656 225.96875 445.867188 225.996094 C 445.714844 226.238281 444.941406 227.496094 444.261719 228.800781 C 440.484375 236.035156 433.039062 252.550781 433.039062 252.550781 C 432.777344 253.132812 432.21875 253.519531 431.585938 253.5625 L 414.277344 254.746094 L 414.222656 254.746094 C 408.074219 254.957031 405.015625 256.074219 403.519531 257.253906 C 403.054688 257.621094 402.792969 258.035156 402.671875 258.277344 Z M 402.582031 258.476562 C 402.578125 258.480469 402.578125 258.484375 402.578125 258.484375 L 402.582031 258.382812 L 400.859375 260.148438 C 401.425781 260.148438 401.953125 259.871094 402.277344 259.40625 C 402.46875 259.128906 402.570312 258.804688 402.582031 258.476562 Z M 402.582031 258.476562 " fill-opacity="1" fill-rule="evenodd"></path></g><path fill="#fea9ed" d="M 370.253906 403.183594 C 370.253906 403.183594 363.421875 405.496094 364.246094 398.605469 L 367.839844 374.101562 C 367.839844 374.101562 348.851562 359.25 346.53125 353.109375 C 346.53125 353.109375 346.351562 348.171875 359.835938 347.710938 L 377.140625 346.527344 C 377.140625 346.527344 388.820312 320.628906 390.386719 319.390625 C 390.386719 319.390625 393.433594 316.386719 398.207031 325 L 408.621094 345.265625 L 435.855469 348.773438 C 435.855469 348.773438 443.5625 349.097656 434.859375 357.34375 L 418.519531 372.652344 L 423.960938 400.421875 C 423.960938 400.421875 421.570312 403.664062 411.707031 398.9375 L 394.789062 390.84375 Z M 370.253906 403.183594 " fill-opacity="1" fill-rule="evenodd"></path><g clip-path="url(#be5f75a8ef)"><path fill="#000000" d="M 389.25 318.097656 L 389.175781 318.160156 C 389.175781 318.160156 390.5 316.710938 392.910156 317.285156 C 394.492188 317.667969 396.933594 319.144531 399.714844 324.164062 L 399.738281 324.210938 L 409.742188 343.671875 L 436.023438 347.054688 C 436.339844 347.078125 437.410156 347.191406 438.394531 347.660156 C 439.289062 348.085938 440.085938 348.78125 440.476562 349.789062 C 440.738281 350.449219 440.835938 351.261719 440.589844 352.269531 C 440.234375 353.699219 439.027344 355.773438 436.042969 358.597656 L 436.035156 358.605469 L 420.394531 373.257812 L 425.652344 400.089844 C 425.746094 400.566406 425.636719 401.058594 425.347656 401.445312 C 425.347656 401.445312 422.476562 406.015625 410.964844 400.496094 L 394.8125 392.765625 L 371.027344 404.726562 C 370.957031 404.761719 370.882812 404.792969 370.808594 404.816406 C 370.808594 404.816406 369.316406 405.324219 367.664062 405.28125 C 366.359375 405.242188 364.988281 404.855469 363.976562 403.871094 C 362.964844 402.882812 362.195312 401.230469 362.535156 398.402344 L 362.539062 398.355469 L 365.988281 374.835938 C 363.597656 372.925781 356.253906 366.964844 350.929688 361.5625 C 347.984375 358.574219 345.667969 355.707031 344.917969 353.722656 C 344.851562 353.546875 344.816406 353.359375 344.808594 353.171875 C 344.808594 353.171875 344.1875 346.527344 359.746094 345.988281 L 375.996094 344.878906 C 377.636719 341.257812 383.617188 328.140625 386.878906 321.890625 C 387.941406 319.859375 388.839844 318.492188 389.25 318.097656 Z M 391.5625 320.652344 L 391.578125 320.632812 L 390.386719 321.117188 L 391.453125 320.742188 C 391.484375 320.71875 391.566406 320.640625 391.566406 320.640625 C 391.566406 320.640625 391.5625 320.644531 391.5625 320.652344 Z M 348.253906 353.164062 C 348.253906 353.167969 348.25 353.167969 348.25 353.167969 L 348.253906 353.070312 L 346.53125 354.835938 C 347.097656 354.835938 347.628906 354.558594 347.949219 354.089844 C 348.140625 353.8125 348.242188 353.492188 348.253906 353.164062 Z M 348.34375 352.960938 C 349.152344 354.617188 351.082031 356.804688 353.382812 359.140625 C 359.695312 365.542969 368.902344 372.742188 368.902344 372.742188 C 369.390625 373.121094 369.632812 373.738281 369.542969 374.351562 L 365.953125 398.839844 C 365.800781 400.132812 365.917969 400.945312 366.382812 401.398438 C 366.753906 401.757812 367.28125 401.816406 367.761719 401.828125 C 368.585938 401.851562 369.34375 401.65625 369.605469 401.578125 L 394.015625 389.304688 C 394.492188 389.0625 395.054688 389.058594 395.535156 389.289062 L 412.453125 397.382812 C 416.503906 399.324219 419.160156 399.847656 420.871094 399.773438 C 421.347656 399.753906 421.742188 399.664062 422.039062 399.570312 L 416.832031 372.984375 C 416.714844 372.398438 416.910156 371.796875 417.34375 371.390625 L 433.679688 356.089844 C 435.253906 354.59375 436.25 353.398438 436.8125 352.425781 C 437.152344 351.835938 437.335938 351.414062 437.273438 351.074219 C 437.226562 350.804688 436.917969 350.765625 436.707031 350.691406 C 436.230469 350.519531 435.785156 350.496094 435.785156 350.496094 C 435.738281 350.496094 435.6875 350.492188 435.640625 350.484375 L 408.402344 346.980469 C 407.835938 346.90625 407.347656 346.5625 407.089844 346.054688 L 396.6875 325.8125 C 395.035156 322.839844 393.699219 321.40625 392.597656 320.835938 C 392.089844 320.570312 391.644531 320.65625 391.542969 320.683594 C 391.390625 320.921875 390.613281 322.183594 389.933594 323.488281 C 386.160156 330.722656 378.710938 347.238281 378.710938 347.238281 C 378.449219 347.816406 377.890625 348.207031 377.261719 348.25 L 359.953125 349.429688 L 359.894531 349.433594 C 353.75 349.644531 350.6875 350.761719 349.191406 351.941406 C 348.726562 352.304688 348.46875 352.71875 348.34375 352.960938 Z M 348.34375 352.960938 " fill-opacity="1" fill-rule="evenodd"></path></g><path stroke-linecap="round" transform="matrix(0.236463, 0, 0, 0.271913, -415.633606, 344.671947)" fill-opacity="1" fill="#000000" fill-rule="nonzero" stroke-linejoin="round" d="M 3209.839287 -285.434376 C 3209.839287 -283.380066 3209.773209 -281.340122 3209.624534 -279.314544 C 3209.475858 -277.288966 3209.261105 -275.320851 3208.963754 -273.424566 C 3208.666403 -271.513914 3208.319494 -269.703823 3207.889987 -267.994293 C 3207.46048 -266.284762 3206.981415 -264.690158 3206.452792 -263.239212 C 3205.907648 -261.773901 3205.312947 -260.480978 3204.685206 -259.331714 C 3204.057466 -258.18245 3203.380167 -257.219941 3202.686348 -256.429822 C 3201.97601 -255.639703 3201.249152 -255.050705 3200.505775 -254.648463 C 3199.762398 -254.246221 3199.002502 -254.045099 3198.242605 -254.045099 C 3197.482709 -254.045099 3196.722812 -254.246221 3195.979435 -254.648463 C 3195.236058 -255.050705 3194.509201 -255.639703 3193.798863 -256.429822 C 3193.088525 -257.219941 3192.427745 -258.18245 3191.800004 -259.331714 C 3191.155744 -260.480978 3190.577562 -261.773901 3190.032419 -263.239212 C 3189.487276 -264.690158 3189.008211 -266.284762 3188.595223 -267.994293 C 3188.165717 -269.703823 3187.802288 -271.513914 3187.521457 -273.424566 C 3187.224106 -275.320851 3187.009352 -277.288966 3186.860677 -279.314544 C 3186.712002 -281.340122 3186.629404 -283.380066 3186.629404 -285.434376 C 3186.629404 -287.503051 3186.712002 -289.542995 3186.860677 -291.568573 C 3187.009352 -293.579785 3187.224106 -295.5479 3187.521457 -297.458552 C 3187.802288 -299.354838 3188.165717 -301.164929 3188.595223 -302.888825 C 3189.008211 -304.598355 3189.487276 -306.178593 3190.032419 -307.643905 C 3190.577562 -309.094851 3191.155744 -310.402139 3191.800004 -311.551403 C 3192.427745 -312.686301 3193.088525 -313.663176 3193.798863 -314.453295 C 3194.509201 -315.243414 3195.236058 -315.832412 3195.979435 -316.234654 C 3196.722812 -316.636897 3197.482709 -316.838018 3198.242605 -316.838018 C 3199.002502 -316.838018 3199.762398 -316.636897 3200.505775 -316.234654 C 3201.249152 -315.832412 3201.97601 -315.243414 3202.686348 -314.453295 C 3203.380167 -313.663176 3204.057466 -312.686301 3204.685206 -311.551403 C 3205.312947 -310.402139 3205.907648 -309.094851 3206.452792 -307.643905 C 3206.981415 -306.178593 3207.46048 -304.598355 3207.889987 -302.888825 C 3208.319494 -301.164929 3208.666403 -299.354838 3208.963754 -297.458552 C 3209.261105 -295.5479 3209.475858 -293.579785 3209.624534 -291.568573 C 3209.773209 -289.542995 3209.839287 -287.503051 3209.839287 -285.434376 Z M 3209.839287 -285.434376 " stroke="#000000" stroke-width="0.82" stroke-opacity="1" stroke-miterlimit="1.5"></path><path stroke-linecap="round" transform="matrix(0.236463, 0, 0, 0.271913, -316.6787, 343.535928)" fill-opacity="1" fill="#000000" fill-rule="nonzero" stroke-linejoin="round" d="M 3209.848273 -285.436949 C 3209.848273 -283.382639 3209.765676 -281.328329 3209.617001 -279.317117 C 3209.468325 -277.291539 3209.253572 -275.323424 3208.956221 -273.427138 C 3208.67539 -271.516487 3208.311961 -269.706396 3207.882454 -267.996865 C 3207.469467 -266.272969 3206.990402 -264.692731 3206.445259 -263.241785 C 3205.900115 -261.776473 3205.321933 -260.469185 3204.694193 -259.334287 C 3204.049933 -258.185023 3203.389153 -257.222514 3202.678815 -256.432395 C 3201.984996 -255.642276 3201.258139 -255.038912 3200.498242 -254.63667 C 3199.754865 -254.234428 3198.994969 -254.033306 3198.235072 -254.033306 C 3197.475176 -254.033306 3196.715279 -254.234428 3195.971902 -254.63667 C 3195.228525 -255.038912 3194.501668 -255.642276 3193.79133 -256.432395 C 3193.097511 -257.222514 3192.420212 -258.185023 3191.792471 -259.334287 C 3191.164731 -260.469185 3190.570029 -261.776473 3190.041406 -263.241785 C 3189.496262 -264.692731 3189.017197 -266.272969 3188.58769 -267.996865 C 3188.174703 -269.706396 3187.811274 -271.516487 3187.513924 -273.427138 C 3187.233092 -275.323424 3187.001819 -277.291539 3186.853144 -279.317117 C 3186.704469 -281.328329 3186.638391 -283.382639 3186.638391 -285.436949 C 3186.638391 -287.505624 3186.704469 -289.545568 3186.853144 -291.571146 C 3187.001819 -293.582358 3187.233092 -295.550473 3187.513924 -297.461125 C 3187.811274 -299.35741 3188.174703 -301.167501 3188.58769 -302.877032 C 3189.017197 -304.600928 3189.496262 -306.181166 3190.041406 -307.646478 C 3190.570029 -309.097424 3191.164731 -310.404712 3191.792471 -311.553976 C 3192.420212 -312.688874 3193.097511 -313.665749 3193.79133 -314.455868 C 3194.501668 -315.231621 3195.228525 -315.834985 3195.971902 -316.237227 C 3196.715279 -316.63947 3197.475176 -316.840591 3198.235072 -316.840591 C 3198.994969 -316.840591 3199.754865 -316.63947 3200.498242 -316.237227 C 3201.258139 -315.834985 3201.984996 -315.231621 3202.678815 -314.455868 C 3203.389153 -313.665749 3204.049933 -312.688874 3204.694193 -311.553976 C 3205.321933 -310.404712 3205.900115 -309.097424 3206.445259 -307.646478 C 3206.990402 -306.181166 3207.469467 -304.600928 3207.882454 -302.877032 C 3208.311961 -301.167501 3208.67539 -299.35741 3208.956221 -297.461125 C 3209.253572 -295.550473 3209.468325 -293.582358 3209.617001 -291.571146 C 3209.765676 -289.545568 3209.848273 -287.505624 3209.848273 -285.436949 Z M 3209.848273 -285.436949 " stroke="#000000" stroke-width="0.82" stroke-opacity="1" stroke-miterlimit="1.5"></path><path stroke-linecap="round" transform="matrix(0.236463, 0, 0, 0.271913, -371.007449, 438.222443)" fill-opacity="1" fill="#000000" fill-rule="nonzero" stroke-linejoin="round" d="M 3209.850914 -285.433329 C 3209.850914 -283.379019 3209.768316 -281.339075 3209.619641 -279.313497 C 3209.470965 -277.287919 3209.256212 -275.33417 3208.958861 -273.423519 C 3208.66151 -271.512867 3208.314601 -269.702776 3207.885094 -267.993245 C 3207.472107 -266.283715 3206.976523 -264.689111 3206.447899 -263.238165 C 3205.902756 -261.772853 3205.324574 -260.479931 3204.680314 -259.330667 C 3204.052573 -258.181403 3203.391793 -257.218894 3202.681455 -256.428775 C 3201.971117 -255.638656 3201.24426 -255.049658 3200.500883 -254.647416 C 3199.757506 -254.245173 3198.997609 -254.044052 3198.237713 -254.044052 C 3197.477816 -254.044052 3196.71792 -254.245173 3195.974543 -254.647416 C 3195.231165 -255.049658 3194.504308 -255.638656 3193.79397 -256.428775 C 3193.100151 -257.218894 3192.422852 -258.181403 3191.795112 -259.330667 C 3191.150852 -260.479931 3190.572669 -261.772853 3190.027526 -263.238165 C 3189.498903 -264.689111 3189.019837 -266.283715 3188.590331 -267.993245 C 3188.160824 -269.702776 3187.813915 -271.512867 3187.516564 -273.423519 C 3187.219213 -275.33417 3187.00446 -277.287919 3186.855784 -279.313497 C 3186.707109 -281.339075 3186.641031 -283.379019 3186.641031 -285.433329 C 3186.641031 -287.502004 3186.707109 -289.541948 3186.855784 -291.567526 C 3187.00446 -293.593104 3187.219213 -295.546853 3187.516564 -297.457505 C 3187.813915 -299.35379 3188.160824 -301.163881 3188.590331 -302.887778 C 3189.019837 -304.597308 3189.498903 -306.177546 3190.027526 -307.642858 C 3190.572669 -309.093804 3191.150852 -310.401092 3191.795112 -311.550356 C 3192.422852 -312.69962 3193.100151 -313.662129 3193.79397 -314.452248 C 3194.504308 -315.242367 3195.231165 -315.831365 3195.974543 -316.233607 C 3196.71792 -316.63585 3197.477816 -316.836971 3198.237713 -316.836971 C 3198.997609 -316.836971 3199.757506 -316.63585 3200.500883 -316.233607 C 3201.24426 -315.831365 3201.971117 -315.242367 3202.681455 -314.452248 C 3203.391793 -313.662129 3204.052573 -312.69962 3204.680314 -311.550356 C 3205.324574 -310.401092 3205.902756 -309.093804 3206.447899 -307.642858 C 3206.976523 -306.177546 3207.472107 -304.597308 3207.885094 -302.887778 C 3208.314601 -301.163881 3208.66151 -299.35379 3208.958861 -297.457505 C 3209.256212 -295.546853 3209.470965 -293.593104 3209.619641 -291.567526 C 3209.768316 -289.541948 3209.850914 -287.502004 3209.850914 -285.433329 Z M 3209.850914 -285.433329 " stroke="#000000" stroke-width="0.82" stroke-opacity="1" stroke-miterlimit="1.5"></path><path stroke-linecap="round" transform="matrix(0.236463, 0, 0, 0.271913, -400.084199, 344.50169)" fill-opacity="1" fill="#000000" fill-rule="nonzero" stroke-linejoin="round" d="M 3209.845098 -285.440327 C 3209.845098 -283.371652 3209.762501 -281.331708 3209.613825 -279.30613 C 3209.46515 -277.294918 3209.250397 -275.326803 3208.953046 -273.416151 C 3208.672214 -271.519866 3208.308786 -269.709775 3207.895798 -268.000244 C 3207.466292 -266.276348 3206.987226 -264.69611 3206.442083 -263.230798 C 3205.91346 -261.779852 3205.318758 -260.472564 3204.691017 -259.337666 C 3204.046757 -258.188402 3203.385978 -257.211527 3202.67564 -256.435774 C 3201.981821 -255.645655 3201.254964 -255.042291 3200.511587 -254.640049 C 3199.75169 -254.237806 3199.008313 -254.036685 3198.231897 -254.036685 C 3197.472001 -254.036685 3196.728623 -254.237806 3195.968727 -254.640049 C 3195.22535 -255.042291 3194.498492 -255.645655 3193.804674 -256.435774 C 3193.094336 -257.211527 3192.433556 -258.188402 3191.789296 -259.337666 C 3191.161556 -260.472564 3190.566854 -261.779852 3190.03823 -263.230798 C 3189.493087 -264.69611 3189.014022 -266.276348 3188.584515 -268.000244 C 3188.171528 -269.709775 3187.808099 -271.519866 3187.510748 -273.416151 C 3187.229917 -275.326803 3186.998644 -277.294918 3186.849969 -279.30613 C 3186.701293 -281.331708 3186.635215 -283.371652 3186.635215 -285.440327 C 3186.635215 -287.494637 3186.701293 -289.548947 3186.849969 -291.560159 C 3186.998644 -293.585737 3187.229917 -295.553852 3187.510748 -297.450138 C 3187.808099 -299.360789 3188.171528 -301.17088 3188.584515 -302.880411 C 3189.014022 -304.604307 3189.493087 -306.184545 3190.03823 -307.635491 C 3190.566854 -309.100803 3191.161556 -310.408091 3191.789296 -311.542989 C 3192.433556 -312.692253 3193.094336 -313.654762 3193.804674 -314.444881 C 3194.498492 -315.235 3195.22535 -315.838364 3195.968727 -316.240606 C 3196.728623 -316.642848 3197.472001 -316.84397 3198.231897 -316.84397 C 3199.008313 -316.84397 3199.75169 -316.642848 3200.511587 -316.240606 C 3201.254964 -315.838364 3201.981821 -315.235 3202.67564 -314.444881 C 3203.385978 -313.654762 3204.046757 -312.692253 3204.691017 -311.542989 C 3205.318758 -310.408091 3205.91346 -309.100803 3206.442083 -307.635491 C 3206.987226 -306.184545 3207.466292 -304.604307 3207.895798 -302.880411 C 3208.308786 -301.17088 3208.672214 -299.360789 3208.953046 -297.450138 C 3209.250397 -295.553852 3209.46515 -293.585737 3209.613825 -291.560159 C 3209.762501 -289.548947 3209.845098 -287.494637 3209.845098 -285.440327 Z M 3209.845098 -285.440327 " stroke="#000000" stroke-width="0.82" stroke-opacity="1" stroke-miterlimit="1.5"></path><path stroke-linecap="round" transform="matrix(0.236463, 0, 0, 0.271913, -301.129298, 343.366052)" fill-opacity="1" fill="#000000" fill-rule="nonzero" stroke-linejoin="round" d="M 3209.837585 -285.444303 C 3209.837585 -283.375627 3209.771508 -281.335683 3209.622832 -279.310105 C 3209.474157 -277.284527 3209.259403 -275.330778 3208.962053 -273.420127 C 3208.664702 -271.523841 3208.317792 -269.71375 3207.888286 -267.989854 C 3207.458779 -266.280323 3206.979714 -264.700085 3206.45109 -263.234773 C 3205.905947 -261.783827 3205.327765 -260.47654 3204.683505 -259.327275 C 3204.055764 -258.192377 3203.378465 -257.215503 3202.684647 -256.425383 C 3201.974308 -255.635264 3201.247451 -255.046267 3200.504074 -254.644024 C 3199.760697 -254.241782 3199.0008 -254.04066 3198.240904 -254.04066 C 3197.481007 -254.04066 3196.721111 -254.241782 3195.977734 -254.644024 C 3195.234357 -255.046267 3194.507499 -255.635264 3193.797161 -256.425383 C 3193.086823 -257.215503 3192.426044 -258.192377 3191.798303 -259.327275 C 3191.154043 -260.47654 3190.575861 -261.783827 3190.030718 -263.234773 C 3189.502094 -264.700085 3189.006509 -266.280323 3188.593522 -267.989854 C 3188.164015 -269.71375 3187.817106 -271.523841 3187.519755 -273.420127 C 3187.222404 -275.330778 3187.007651 -277.284527 3186.858976 -279.310105 C 3186.7103 -281.335683 3186.627703 -283.375627 3186.627703 -285.444303 C 3186.627703 -287.498612 3186.7103 -289.538556 3186.858976 -291.564134 C 3187.007651 -293.589712 3187.222404 -295.543461 3187.519755 -297.454113 C 3187.817106 -299.364764 3188.164015 -301.174855 3188.593522 -302.884386 C 3189.006509 -304.593916 3189.502094 -306.18852 3190.030718 -307.639466 C 3190.575861 -309.104778 3191.154043 -310.3977 3191.798303 -311.546964 C 3192.426044 -312.696228 3193.086823 -313.658737 3193.797161 -314.448856 C 3194.507499 -315.238975 3195.234357 -315.827973 3195.977734 -316.230216 C 3196.721111 -316.632458 3197.481007 -316.833579 3198.240904 -316.833579 C 3199.0008 -316.833579 3199.760697 -316.632458 3200.504074 -316.230216 C 3201.247451 -315.827973 3201.974308 -315.238975 3202.684647 -314.448856 C 3203.378465 -313.658737 3204.055764 -312.696228 3204.683505 -311.546964 C 3205.327765 -310.3977 3205.905947 -309.104778 3206.45109 -307.639466 C 3206.979714 -306.18852 3207.458779 -304.593916 3207.888286 -302.884386 C 3208.317792 -301.174855 3208.664702 -299.364764 3208.962053 -297.454113 C 3209.259403 -295.543461 3209.474157 -293.589712 3209.622832 -291.564134 C 3209.771508 -289.538556 3209.837585 -287.498612 3209.837585 -285.444303 Z M 3209.837585 -285.444303 " stroke="#000000" stroke-width="0.82" stroke-opacity="1" stroke-miterlimit="1.5"></path><path stroke-linecap="round" transform="matrix(0.236463, 0, 0, 0.271913, -355.458104, 438.052604)" fill-opacity="1" fill="#000000" fill-rule="nonzero" stroke-linejoin="round" d="M 3209.840469 -285.440815 C 3209.840469 -283.37214 3209.774391 -281.332196 3209.625716 -279.306618 C 3209.47704 -277.295406 3209.245768 -275.327291 3208.964936 -273.416639 C 3208.667585 -271.520353 3208.304157 -269.710262 3207.891169 -268.000732 C 3207.461663 -266.276836 3206.982597 -264.696598 3206.453974 -263.231286 C 3205.908831 -261.78034 3205.314129 -260.473052 3204.686388 -259.323788 C 3204.058648 -258.188889 3203.381349 -257.212015 3202.68753 -256.436262 C 3201.977192 -255.646143 3201.250335 -255.042779 3200.506958 -254.640536 C 3199.763581 -254.238294 3199.003684 -254.037173 3198.243788 -254.037173 C 3197.483891 -254.037173 3196.723995 -254.238294 3195.980617 -254.640536 C 3195.220721 -255.042779 3194.510383 -255.646143 3193.800045 -256.436262 C 3193.089707 -257.212015 3192.428927 -258.188889 3191.784667 -259.323788 C 3191.156927 -260.473052 3190.578744 -261.78034 3190.033601 -263.231286 C 3189.488458 -264.696598 3189.009393 -266.276836 3188.596406 -268.000732 C 3188.166899 -269.710262 3187.80347 -271.520353 3187.522639 -273.416639 C 3187.225288 -275.327291 3187.010535 -277.295406 3186.861859 -279.306618 C 3186.713184 -281.332196 3186.630586 -283.37214 3186.630586 -285.440815 C 3186.630586 -287.495125 3186.713184 -289.549434 3186.861859 -291.560647 C 3187.010535 -293.586225 3187.225288 -295.554339 3187.522639 -297.450625 C 3187.80347 -299.361277 3188.166899 -301.171368 3188.596406 -302.880898 C 3189.009393 -304.604794 3189.488458 -306.185033 3190.033601 -307.635979 C 3190.578744 -309.10129 3191.156927 -310.408578 3191.784667 -311.543477 C 3192.428927 -312.692741 3193.089707 -313.655249 3193.800045 -314.445368 C 3194.510383 -315.235488 3195.220721 -315.838851 3195.980617 -316.241094 C 3196.723995 -316.643336 3197.483891 -316.844457 3198.243788 -316.844457 C 3199.003684 -316.844457 3199.763581 -316.643336 3200.506958 -316.241094 C 3201.250335 -315.838851 3201.977192 -315.235488 3202.68753 -314.445368 C 3203.381349 -313.655249 3204.058648 -312.692741 3204.686388 -311.543477 C 3205.314129 -310.408578 3205.908831 -309.10129 3206.453974 -307.635979 C 3206.982597 -306.185033 3207.461663 -304.604794 3207.891169 -302.880898 C 3208.304157 -301.171368 3208.667585 -299.361277 3208.964936 -297.450625 C 3209.245768 -295.554339 3209.47704 -293.586225 3209.625716 -291.560647 C 3209.774391 -289.549434 3209.840469 -287.495125 3209.840469 -285.440815 Z M 3209.840469 -285.440815 " stroke="#000000" stroke-width="0.82" stroke-opacity="1" stroke-miterlimit="1.5"></path><path stroke-linecap="round" transform="matrix(0.271723, 0, 0, 0.280554, 71.206315, 410.341832)" fill-opacity="1" fill="#ffffff" fill-rule="nonzero" stroke-linejoin="round" d="M 1055.047359 -525.474302 C 1055.047359 -524.054121 1054.874848 -522.675709 1054.558579 -521.352991 C 1054.227934 -520.044196 1053.767907 -518.874635 1053.16412 -517.85823 C 1052.560334 -516.855749 1051.870293 -516.076041 1051.093996 -515.533031 C 1050.303323 -514.99002 1049.483899 -514.711553 1048.635723 -514.711553 C 1047.787547 -514.711553 1046.968123 -514.99002 1046.191826 -515.533031 C 1045.401153 -516.076041 1044.711112 -516.855749 1044.107326 -517.85823 C 1043.517915 -518.874635 1043.043512 -520.044196 1042.727243 -521.352991 C 1042.396598 -522.675709 1042.238463 -524.054121 1042.238463 -525.474302 C 1042.238463 -526.908407 1042.396598 -528.286819 1042.727243 -529.609537 C 1043.043512 -530.918332 1043.517915 -532.087893 1044.107326 -533.090375 C 1044.711112 -534.106779 1045.401153 -534.886487 1046.191826 -535.429497 C 1046.968123 -535.972508 1047.787547 -536.250975 1048.635723 -536.250975 C 1049.483899 -536.250975 1050.303323 -535.972508 1051.093996 -535.429497 C 1051.870293 -534.886487 1052.560334 -534.106779 1053.16412 -533.090375 C 1053.767907 -532.087893 1054.227934 -530.918332 1054.558579 -529.609537 C 1054.874848 -528.286819 1055.047359 -526.908407 1055.047359 -525.474302 Z M 1055.047359 -525.474302 " stroke="#000000" stroke-width="0.76" stroke-opacity="1" stroke-miterlimit="1.5"></path><path stroke-linecap="round" transform="matrix(0.271723, 0, 0, 0.280554, 170.159635, 409.205844)" fill-opacity="1" fill="#ffffff" fill-rule="nonzero" stroke-linejoin="round" d="M 1055.046638 -525.476907 C 1055.046638 -524.056725 1054.874128 -522.678314 1054.557859 -521.355595 C 1054.227214 -520.032877 1053.767186 -518.877239 1053.1634 -517.860835 C 1052.559613 -516.858354 1051.869572 -516.078646 1051.093275 -515.535635 C 1050.302603 -514.978701 1049.483178 -514.714158 1048.635002 -514.714158 C 1047.786826 -514.714158 1046.967402 -514.978701 1046.191105 -515.535635 C 1045.400433 -516.078646 1044.710391 -516.858354 1044.106605 -517.860835 C 1043.517194 -518.877239 1043.057167 -520.032877 1042.726522 -521.355595 C 1042.395877 -522.678314 1042.237742 -524.056725 1042.237742 -525.476907 C 1042.237742 -526.911012 1042.395877 -528.289424 1042.726522 -529.598218 C 1043.057167 -530.920937 1043.517194 -532.090498 1044.106605 -533.092979 C 1044.710391 -534.109384 1045.400433 -534.889091 1046.191105 -535.432102 C 1046.967402 -535.975113 1047.786826 -536.25358 1048.635002 -536.25358 C 1049.483178 -536.25358 1050.302603 -535.975113 1051.093275 -535.432102 C 1051.869572 -534.889091 1052.559613 -534.109384 1053.1634 -533.092979 C 1053.767186 -532.090498 1054.227214 -530.920937 1054.557859 -529.598218 C 1054.874128 -528.289424 1055.046638 -526.911012 1055.046638 -525.476907 Z M 1055.046638 -525.476907 " stroke="#000000" stroke-width="0.76" stroke-opacity="1" stroke-miterlimit="1.5"></path><path stroke-linecap="round" transform="matrix(0.271723, 0, 0, 0.280554, 115.833201, 503.892345)" fill-opacity="1" fill="#ffffff" fill-rule="nonzero" stroke-linejoin="round" d="M 1055.040418 -525.487271 C 1055.040418 -524.053166 1054.882283 -522.674754 1054.551638 -521.365959 C 1054.235369 -520.043241 1053.760966 -518.873679 1053.171555 -517.871198 C 1052.567769 -516.854794 1051.877727 -516.075086 1051.087055 -515.532076 C 1050.310758 -514.989065 1049.491334 -514.710598 1048.643158 -514.710598 C 1047.794982 -514.710598 1046.975557 -514.989065 1046.184885 -515.532076 C 1045.408588 -516.075086 1044.718547 -516.854794 1044.11476 -517.871198 C 1043.510974 -518.873679 1043.050946 -520.043241 1042.720301 -521.365959 C 1042.404032 -522.674754 1042.231522 -524.053166 1042.231522 -525.487271 C 1042.231522 -526.907452 1042.404032 -528.285864 1042.720301 -529.608582 C 1043.050946 -530.917377 1043.510974 -532.086938 1044.11476 -533.103343 C 1044.718547 -534.105824 1045.408588 -534.885532 1046.184885 -535.428542 C 1046.975557 -535.985476 1047.794982 -536.25002 1048.643158 -536.25002 C 1049.491334 -536.25002 1050.310758 -535.985476 1051.087055 -535.428542 C 1051.877727 -534.885532 1052.567769 -534.105824 1053.171555 -533.103343 C 1053.760966 -532.086938 1054.235369 -530.917377 1054.551638 -529.608582 C 1054.882283 -528.285864 1055.040418 -526.907452 1055.040418 -525.487271 Z M 1055.040418 -525.487271 " stroke="#000000" stroke-width="0.76" stroke-opacity="1" stroke-miterlimit="1.5"></path><path stroke-linecap="round" transform="matrix(0.271723, 0, 0, 0.280554, 55.837183, 410.675634)" fill-opacity="1" fill="#ffffff" fill-rule="nonzero" stroke-linejoin="round" d="M 1055.040138 -525.480615 C 1055.040138 -524.04651 1054.882004 -522.682022 1054.551359 -521.359304 C 1054.23509 -520.036585 1053.760686 -518.880947 1053.171276 -517.864543 C 1052.56749 -516.848138 1051.877448 -516.082354 1051.086776 -515.52542 C 1050.310479 -514.982409 1049.491055 -514.703942 1048.642878 -514.703942 C 1047.794702 -514.703942 1046.975278 -514.982409 1046.184606 -515.52542 C 1045.408309 -516.082354 1044.718267 -516.848138 1044.114481 -517.864543 C 1043.510695 -518.880947 1043.050667 -520.036585 1042.720022 -521.359304 C 1042.403753 -522.682022 1042.231243 -524.04651 1042.231243 -525.480615 C 1042.231243 -526.91472 1042.403753 -528.279208 1042.720022 -529.601927 C 1043.050667 -530.924645 1043.510695 -532.094206 1044.114481 -533.096687 C 1044.718267 -534.113092 1045.408309 -534.878876 1046.184606 -535.43581 C 1046.975278 -535.978821 1047.794702 -536.257288 1048.642878 -536.257288 C 1049.491055 -536.257288 1050.310479 -535.978821 1051.086776 -535.43581 C 1051.877448 -534.878876 1052.56749 -534.113092 1053.171276 -533.096687 C 1053.760686 -532.094206 1054.23509 -530.924645 1054.551359 -529.601927 C 1054.882004 -528.279208 1055.040138 -526.91472 1055.040138 -525.480615 Z M 1055.040138 -525.480615 " stroke="#000000" stroke-width="0.76" stroke-opacity="1" stroke-miterlimit="1.5"></path><path stroke-linecap="round" transform="matrix(0.271723, 0, 0, 0.280554, 154.790518, 409.54003)" fill-opacity="1" fill="#ffffff" fill-rule="nonzero" stroke-linejoin="round" d="M 1055.039365 -525.484588 C 1055.039365 -524.050483 1054.88123 -522.672071 1054.550585 -521.363276 C 1054.234316 -520.040558 1053.759913 -518.870996 1053.170502 -517.868515 C 1052.566716 -516.852111 1051.876674 -516.072403 1051.086002 -515.529393 C 1050.309705 -514.986382 1049.490281 -514.707915 1048.642105 -514.707915 C 1047.793929 -514.707915 1046.974504 -514.986382 1046.183832 -515.529393 C 1045.407535 -516.072403 1044.717494 -516.852111 1044.113707 -517.868515 C 1043.509921 -518.870996 1043.049893 -520.040558 1042.719248 -521.363276 C 1042.402979 -522.672071 1042.244845 -524.050483 1042.244845 -525.484588 C 1042.244845 -526.904769 1042.402979 -528.283181 1042.719248 -529.605899 C 1043.049893 -530.928617 1043.509921 -532.084255 1044.113707 -533.10066 C 1044.717494 -534.103141 1045.407535 -534.882849 1046.183832 -535.425859 C 1046.974504 -535.982793 1047.793929 -536.247337 1048.642105 -536.247337 C 1049.490281 -536.247337 1050.309705 -535.982793 1051.086002 -535.425859 C 1051.876674 -534.882849 1052.566716 -534.103141 1053.170502 -533.10066 C 1053.759913 -532.084255 1054.234316 -530.928617 1054.550585 -529.605899 C 1054.88123 -528.283181 1055.039365 -526.904769 1055.039365 -525.484588 Z M 1055.039365 -525.484588 " stroke="#000000" stroke-width="0.76" stroke-opacity="1" stroke-miterlimit="1.5"></path><path stroke-linecap="round" transform="matrix(0.271723, 0, 0, 0.280554, 100.464069, 504.226531)" fill-opacity="1" fill="#ffffff" fill-rule="nonzero" stroke-linejoin="round" d="M 1055.047573 -525.481028 C 1055.047573 -524.046923 1054.875063 -522.682435 1054.558794 -521.359716 C 1054.228149 -520.036998 1053.768121 -518.88136 1053.164335 -517.864956 C 1052.560548 -516.848551 1051.870507 -516.082767 1051.09421 -515.525833 C 1050.303538 -514.982822 1049.484113 -514.704355 1048.635937 -514.704355 C 1047.787761 -514.704355 1046.968337 -514.982822 1046.19204 -515.525833 C 1045.401368 -516.082767 1044.711326 -516.848551 1044.10754 -517.864956 C 1043.518129 -518.88136 1043.043726 -520.036998 1042.727457 -521.359716 C 1042.396812 -522.682435 1042.238677 -524.046923 1042.238677 -525.481028 C 1042.238677 -526.915133 1042.396812 -528.279621 1042.727457 -529.602339 C 1043.043726 -530.925058 1043.518129 -532.080696 1044.10754 -533.0971 C 1044.711326 -534.113505 1045.401368 -534.879289 1046.19204 -535.436223 C 1046.968337 -535.979233 1047.787761 -536.2577 1048.635937 -536.2577 C 1049.484113 -536.2577 1050.303538 -535.979233 1051.09421 -535.436223 C 1051.870507 -534.879289 1052.560548 -534.113505 1053.164335 -533.0971 C 1053.768121 -532.080696 1054.228149 -530.925058 1054.558794 -529.602339 C 1054.875063 -528.279621 1055.047573 -526.915133 1055.047573 -525.481028 Z M 1055.047573 -525.481028 " stroke="#000000" stroke-width="0.76" stroke-opacity="1" stroke-miterlimit="1.5"></path><path fill="#000000" d="M 355.109375 283.773438 C 355.109375 284.09375 355.0625 284.410156 354.972656 284.722656 C 354.882812 285.035156 354.75 285.339844 354.574219 285.632812 C 354.394531 285.929688 354.179688 286.210938 353.921875 286.476562 C 353.664062 286.742188 353.371094 286.984375 353.046875 287.210938 C 352.71875 287.4375 352.363281 287.640625 351.976562 287.816406 C 351.59375 287.992188 351.1875 288.144531 350.757812 288.265625 C 350.332031 288.386719 349.890625 288.480469 349.4375 288.542969 C 348.984375 288.605469 348.523438 288.636719 348.0625 288.636719 C 347.597656 288.636719 347.140625 288.605469 346.6875 288.542969 C 346.234375 288.480469 345.792969 288.386719 345.363281 288.265625 C 344.9375 288.144531 344.53125 287.992188 344.148438 287.816406 C 343.761719 287.640625 343.40625 287.4375 343.078125 287.210938 C 342.75 286.984375 342.460938 286.742188 342.203125 286.476562 C 341.945312 286.210938 341.726562 285.929688 341.550781 285.632812 C 341.375 285.339844 341.238281 285.035156 341.148438 284.722656 C 341.058594 284.410156 341.015625 284.09375 341.015625 283.773438 C 341.015625 283.457031 341.058594 283.140625 341.148438 282.824219 C 341.238281 282.511719 341.375 282.207031 341.550781 281.914062 C 341.726562 281.617188 341.945312 281.339844 342.203125 281.074219 C 342.460938 280.808594 342.75 280.5625 343.078125 280.335938 C 343.40625 280.109375 343.761719 279.910156 344.148438 279.730469 C 344.53125 279.554688 344.9375 279.40625 345.363281 279.28125 C 345.792969 279.160156 346.234375 279.070312 346.6875 279.007812 C 347.140625 278.945312 347.597656 278.914062 348.0625 278.914062 C 348.523438 278.914062 348.984375 278.945312 349.4375 279.007812 C 349.890625 279.070312 350.332031 279.160156 350.757812 279.28125 C 351.1875 279.40625 351.59375 279.554688 351.976562 279.730469 C 352.363281 279.910156 352.71875 280.109375 353.046875 280.335938 C 353.371094 280.5625 353.664062 280.808594 353.921875 281.074219 C 354.179688 281.339844 354.394531 281.617188 354.574219 281.914062 C 354.75 282.207031 354.882812 282.511719 354.972656 282.824219 C 355.0625 283.140625 355.109375 283.457031 355.109375 283.773438 Z M 355.109375 283.773438 " fill-opacity="1" fill-rule="nonzero"></path><path fill="#000000" d="M 454.058594 282.636719 C 454.058594 282.957031 454.015625 283.273438 453.925781 283.585938 C 453.835938 283.898438 453.699219 284.203125 453.523438 284.496094 C 453.347656 284.792969 453.128906 285.070312 452.871094 285.335938 C 452.617188 285.601562 452.324219 285.847656 451.996094 286.074219 C 451.667969 286.300781 451.3125 286.5 450.929688 286.679688 C 450.542969 286.855469 450.136719 287.007812 449.710938 287.128906 C 449.28125 287.25 448.839844 287.34375 448.386719 287.40625 C 447.933594 287.46875 447.476562 287.5 447.011719 287.5 C 446.550781 287.5 446.09375 287.46875 445.636719 287.40625 C 445.183594 287.34375 444.742188 287.25 444.316406 287.128906 C 443.886719 287.007812 443.480469 286.855469 443.097656 286.679688 C 442.710938 286.5 442.355469 286.300781 442.03125 286.074219 C 441.703125 285.847656 441.410156 285.601562 441.152344 285.335938 C 440.894531 285.070312 440.679688 284.792969 440.5 284.496094 C 440.324219 284.203125 440.191406 283.898438 440.101562 283.585938 C 440.011719 283.273438 439.964844 282.957031 439.964844 282.636719 C 439.964844 282.316406 440.011719 282 440.101562 281.6875 C 440.191406 281.375 440.324219 281.070312 440.5 280.777344 C 440.679688 280.480469 440.894531 280.199219 441.152344 279.9375 C 441.410156 279.671875 441.703125 279.425781 442.03125 279.199219 C 442.355469 278.972656 442.710938 278.773438 443.097656 278.59375 C 443.480469 278.417969 443.886719 278.265625 444.316406 278.144531 C 444.742188 278.023438 445.183594 277.929688 445.636719 277.867188 C 446.09375 277.804688 446.550781 277.773438 447.011719 277.773438 C 447.476562 277.773438 447.933594 277.804688 448.386719 277.867188 C 448.839844 277.929688 449.28125 278.023438 449.710938 278.144531 C 450.136719 278.265625 450.542969 278.417969 450.929688 278.59375 C 451.3125 278.773438 451.667969 278.972656 451.996094 279.199219 C 452.324219 279.425781 452.617188 279.671875 452.871094 279.9375 C 453.128906 280.199219 453.347656 280.480469 453.523438 280.777344 C 453.699219 281.070312 453.835938 281.375 453.925781 281.6875 C 454.015625 282 454.058594 282.316406 454.058594 282.636719 Z M 454.058594 282.636719 " fill-opacity="1" fill-rule="nonzero"></path><path fill="#000000" d="M 399.734375 377.324219 C 399.734375 377.644531 399.691406 377.960938 399.601562 378.273438 C 399.511719 378.585938 399.375 378.890625 399.199219 379.1875 C 399.023438 379.480469 398.804688 379.761719 398.546875 380.027344 C 398.289062 380.292969 398 380.539062 397.671875 380.761719 C 397.34375 380.988281 396.988281 381.191406 396.601562 381.367188 C 396.21875 381.546875 395.8125 381.695312 395.386719 381.816406 C 394.957031 381.9375 394.515625 382.03125 394.0625 382.09375 C 393.609375 382.15625 393.152344 382.1875 392.6875 382.1875 C 392.226562 382.1875 391.765625 382.15625 391.3125 382.09375 C 390.859375 382.03125 390.417969 381.9375 389.992188 381.816406 C 389.5625 381.695312 389.15625 381.546875 388.773438 381.367188 C 388.386719 381.191406 388.03125 380.988281 387.703125 380.761719 C 387.378906 380.539062 387.085938 380.292969 386.828125 380.027344 C 386.570312 379.761719 386.355469 379.480469 386.175781 379.1875 C 386 378.890625 385.867188 378.585938 385.777344 378.273438 C 385.6875 377.960938 385.640625 377.644531 385.640625 377.324219 C 385.640625 377.007812 385.6875 376.691406 385.777344 376.378906 C 385.867188 376.0625 386 375.761719 386.175781 375.464844 C 386.355469 375.171875 386.570312 374.890625 386.828125 374.625 C 387.085938 374.359375 387.378906 374.113281 387.703125 373.886719 C 388.03125 373.664062 388.386719 373.460938 388.773438 373.285156 C 389.15625 373.105469 389.5625 372.957031 389.992188 372.835938 C 390.417969 372.710938 390.859375 372.621094 391.3125 372.558594 C 391.765625 372.496094 392.226562 372.464844 392.6875 372.464844 C 393.152344 372.464844 393.609375 372.496094 394.0625 372.558594 C 394.515625 372.621094 394.957031 372.710938 395.386719 372.835938 C 395.8125 372.957031 396.21875 373.105469 396.601562 373.285156 C 396.988281 373.460938 397.34375 373.664062 397.671875 373.886719 C 398 374.113281 398.289062 374.359375 398.546875 374.625 C 398.804688 374.890625 399.023438 375.171875 399.199219 375.464844 C 399.375 375.761719 399.507812 376.0625 399.601562 376.378906 C 399.691406 376.691406 399.734375 377.007812 399.734375 377.324219 Z M 399.734375 377.324219 " fill-opacity="1" fill-rule="nonzero"></path></svg>